<svg fill='orange' height="495pt" viewBox="0 -2 495.184 495" width="495pt" xmlns="http://www.w3.org/2000/svg"><path d="m119.59375 245.101562c0 70.691407 57.304688 128 128 128 70.691406 0 128-57.308593 128-128 0-70.695312-57.308594-128-128-128-70.660156.082032-127.917969 57.339844-128 128zm239.589844-8h-15.589844v16h15.589844c-4.027344 55.457032-48.132813 99.5625-103.589844 103.589844v-15.589844h-16v15.589844c-55.460938-4.027344-99.566406-48.132812-103.59375-103.589844h15.59375v-16h-15.59375c4.027344-55.460937 48.132812-99.566406 103.59375-103.59375v15.59375h16v-15.59375c55.457031 4.027344 99.5625 48.132813 103.589844 103.59375zm0 0"/><path d="m255.59375 222.570312v-57.46875h-16v57.46875c-9.554688 3.378907-15.960938 12.394532-16 22.53125.011719 3.5625.832031 7.078126 2.398438 10.277344l-32.0625 32.066406 11.308593 11.3125 32.074219-32.058593c3.203125 1.5625 6.714844 2.382812 10.28125 2.402343 11.671875.019532 21.664062-8.382812 23.640625-19.886718 1.980469-11.507813-4.628906-22.765625-15.640625-26.644532zm-8 30.53125c-4.421875 0-8-3.582031-8-8 0-4.417968 3.578125-8 8-8 4.417969 0 8 3.582032 8 8 0 4.417969-3.582031 8-8 8zm0 0"/><path d="m95.59375 245.101562c0 83.945313 68.050781 152 152 152 83.945312 0 152-68.054687 152-152 0-83.949218-68.054688-152-152-152-83.910156.089844-151.910156 68.089844-152 152zm288 0c0 75.109376-60.890625 136-136 136-75.113281 0-136-60.890624-136-136 0-75.113281 60.886719-136 136-136 75.074219.082032 135.914062 60.921876 136 136zm0 0"/><path d="m483.871094 205.507812-21.078125 21.105469c-9.039063-98.921875-83.929688-179.15625-181.992188-194.976562l-2.402343 15.816406c89.511718 14.496094 158.296874 87.023437 168.035156 177.175781l-19.121094-19.121094-11.3125 11.3125 33.9375 33.9375c3.121094 3.121094 8.1875 3.121094 11.308594 0l33.9375-33.9375zm0 0"/><path d="m48.753906 265.570312 19.117188 19.121094 11.3125-11.3125-33.9375-33.933594c-3.121094-3.125-8.1875-3.125-11.308594 0l-33.9375 33.933594 11.3125 11.3125 21.078125-21.101562c9.054687 98.902344 83.929687 179.128906 181.976563 194.972656l2.402343-15.816406c-89.503906-14.5-158.28125-87.027344-168.015625-177.175782zm0 0"/><path d="m265.441406 444.300781 19.125-22.808593-12.246094-10.28125-30.855468 36.800781c-2.84375 3.382812-2.402344 8.429687.984375 11.273437l36.796875 30.847656 10.28125-12.25-21.191406-17.824218c97.960937-9.996094 177.003906-84.535156 192.71875-181.742188l-15.816407-2.402344c-14.625 90.507813-88.527343 159.71875-179.796875 168.386719zm0 0"/><path d="m229.742188 45.898438-19.125 22.832031 12.246093 10.28125 30.855469-36.800781c2.84375-3.382813 2.402344-8.429688-.984375-11.269532l-36.796875-30.847656-10.257812 12.277344 21.167968 17.769531c-97.960937 9.996094-177.003906 84.535156-192.71875 181.742187l15.816406 2.402344c14.625-90.507812 88.527344-159.71875 179.796876-168.386718zm0 0"/></svg>